<mxfile host="app.diagrams.net" modified="2022-02-23T06:22:19.092Z" agent="5.0 (Macintosh; Intel Mac OS X 10_15_7) AppleWebKit/537.36 (KHTML, like Gecko) Chrome/98.0.4758.102 Safari/537.36" etag="EOuepKKzzKp_XXdr-_We" version="16.5.6" type="github">
  <diagram id="m7ykKMguCv_zMnbDmOIA" name="第 1 页">
    <mxGraphModel dx="875" dy="497" grid="1" gridSize="10" guides="1" tooltips="1" connect="1" arrows="1" fold="1" page="1" pageScale="1" pageWidth="850" pageHeight="1100" math="0" shadow="0">
      <root>
        <mxCell id="0" />
        <mxCell id="1" parent="0" />
        <mxCell id="2YlMVlzXzQUb3xdYXMuv-4" style="edgeStyle=orthogonalEdgeStyle;rounded=0;orthogonalLoop=1;jettySize=auto;html=1;exitX=1;exitY=0.5;exitDx=0;exitDy=0;" edge="1" parent="1" source="2YlMVlzXzQUb3xdYXMuv-1" target="2YlMVlzXzQUb3xdYXMuv-2">
          <mxGeometry relative="1" as="geometry" />
        </mxCell>
        <mxCell id="2YlMVlzXzQUb3xdYXMuv-1" value="摘要信息" style="rounded=0;whiteSpace=wrap;html=1;" vertex="1" parent="1">
          <mxGeometry x="140" y="150" width="120" height="60" as="geometry" />
        </mxCell>
        <mxCell id="2YlMVlzXzQUb3xdYXMuv-5" style="edgeStyle=orthogonalEdgeStyle;rounded=0;orthogonalLoop=1;jettySize=auto;html=1;exitX=1;exitY=0.5;exitDx=0;exitDy=0;entryX=0;entryY=0.5;entryDx=0;entryDy=0;" edge="1" parent="1" source="2YlMVlzXzQUb3xdYXMuv-2" target="2YlMVlzXzQUb3xdYXMuv-3">
          <mxGeometry relative="1" as="geometry" />
        </mxCell>
        <mxCell id="2YlMVlzXzQUb3xdYXMuv-2" value="匹配概念词表" style="rounded=0;whiteSpace=wrap;html=1;" vertex="1" parent="1">
          <mxGeometry x="320" y="150" width="120" height="60" as="geometry" />
        </mxCell>
        <mxCell id="2YlMVlzXzQUb3xdYXMuv-3" value="命名实体识别" style="rounded=0;whiteSpace=wrap;html=1;" vertex="1" parent="1">
          <mxGeometry x="500" y="150" width="120" height="60" as="geometry" />
        </mxCell>
      </root>
    </mxGraphModel>
  </diagram>
</mxfile>
